<mxfile modified="2022-05-02T00:52:38.427Z" host="app.diagrams.net" agent="5.0 (Windows NT 10.0; Win64; x64) AppleWebKit/537.36 (KHTML, like Gecko) Chrome/100.0.4896.127 Safari/537.36 Edg/100.0.1185.50" etag="dj2q5cWUsFUyryOnzUMy" compressed="false" version="17.5.0" type="google">
  <diagram name="User Context/Experiences" id="xgnr4Icmk0gfDARiemm8">
    <mxGraphModel grid="1" page="1" gridSize="10" guides="1" tooltips="1" connect="1" arrows="1" fold="1" pageScale="1" pageWidth="827" pageHeight="1169" math="0" shadow="0">
      <root>
        <mxCell id="RFmFFEc1mH7jgzLCkoLY-0" />
        <mxCell id="RFmFFEc1mH7jgzLCkoLY-1" value="Diagram" style="" parent="RFmFFEc1mH7jgzLCkoLY-0" />
        <mxCell id="RFmFFEc1mH7jgzLCkoLY-2" value="Use" style="rounded=1;whiteSpace=wrap;html=1;shadow=0;glass=0;comic=0;strokeColor=#666666;fillColor=#f5f5f5;fontSize=12;align=center;fontColor=#333333;" vertex="1" parent="RFmFFEc1mH7jgzLCkoLY-1">
          <mxGeometry x="120" y="1490" width="80" height="40" as="geometry" />
        </mxCell>
        <mxCell id="RFmFFEc1mH7jgzLCkoLY-3" value="Consume" style="rounded=1;whiteSpace=wrap;html=1;shadow=0;glass=0;comic=0;strokeColor=#B3B3B3;fillColor=none;fontSize=12;align=center;" vertex="1" parent="RFmFFEc1mH7jgzLCkoLY-1">
          <mxGeometry x="210" y="1490" width="80" height="40" as="geometry" />
        </mxCell>
        <mxCell id="RFmFFEc1mH7jgzLCkoLY-4" value="Comment" style="rounded=1;whiteSpace=wrap;html=1;shadow=0;glass=0;comic=0;strokeColor=#B3B3B3;fillColor=none;fontSize=12;align=center;" vertex="1" parent="RFmFFEc1mH7jgzLCkoLY-1">
          <mxGeometry x="390" y="1490" width="80" height="40" as="geometry" />
        </mxCell>
        <mxCell id="RFmFFEc1mH7jgzLCkoLY-5" value="Collaborate" style="rounded=1;whiteSpace=wrap;html=1;shadow=0;glass=0;comic=0;strokeColor=#B3B3B3;fillColor=none;fontSize=12;align=center;" vertex="1" parent="RFmFFEc1mH7jgzLCkoLY-1">
          <mxGeometry x="480" y="1490" width="80" height="40" as="geometry" />
        </mxCell>
        <mxCell id="RFmFFEc1mH7jgzLCkoLY-6" value="Create" style="rounded=1;whiteSpace=wrap;html=1;shadow=0;glass=0;comic=0;strokeColor=#B3B3B3;fillColor=none;fontSize=12;align=center;" vertex="1" parent="RFmFFEc1mH7jgzLCkoLY-1">
          <mxGeometry x="570" y="1490" width="80" height="40" as="geometry" />
        </mxCell>
        <mxCell id="RFmFFEc1mH7jgzLCkoLY-7" value="Resource Types" style="rounded=1;whiteSpace=wrap;html=1;shadow=0;glass=0;comic=0;strokeColor=#666666;fillColor=#f5f5f5;fontSize=12;align=center;fontColor=#333333;" vertex="1" parent="RFmFFEc1mH7jgzLCkoLY-1">
          <mxGeometry x="120" y="1650" width="80" height="40" as="geometry" />
        </mxCell>
        <mxCell id="RFmFFEc1mH7jgzLCkoLY-8" value="Resource&amp;nbsp;&lt;br style=&quot;font-size: 12px&quot;&gt;Development" style="rounded=1;whiteSpace=wrap;html=1;shadow=0;glass=0;comic=0;strokeColor=#666666;fillColor=#f5f5f5;fontSize=12;align=center;fontColor=#333333;" vertex="1" parent="RFmFFEc1mH7jgzLCkoLY-1">
          <mxGeometry x="120" y="1800" width="80" height="40" as="geometry" />
        </mxCell>
        <mxCell id="RFmFFEc1mH7jgzLCkoLY-9" value="No&lt;br&gt;Workflows (just Save)" style="rounded=1;whiteSpace=wrap;html=1;shadow=0;glass=0;comic=0;strokeColor=#B3B3B3;fillColor=none;fontSize=12;align=center;" vertex="1" parent="RFmFFEc1mH7jgzLCkoLY-1">
          <mxGeometry x="210" y="1800" width="80" height="40" as="geometry" />
        </mxCell>
        <mxCell id="RFmFFEc1mH7jgzLCkoLY-10" value="Yes.&lt;br style=&quot;font-size: 12px&quot;&gt;Fixed Worklfow" style="rounded=1;whiteSpace=wrap;html=1;shadow=0;glass=0;comic=0;strokeColor=#B3B3B3;fillColor=none;fontSize=12;align=center;" vertex="1" parent="RFmFFEc1mH7jgzLCkoLY-1">
          <mxGeometry x="300" y="1800" width="80" height="40" as="geometry" />
        </mxCell>
        <mxCell id="RFmFFEc1mH7jgzLCkoLY-11" value="Yes.&lt;br&gt;Customizable Workflow" style="rounded=1;whiteSpace=wrap;html=1;shadow=0;glass=0;comic=0;strokeColor=#B3B3B3;fillColor=none;fontSize=12;align=center;" vertex="1" parent="RFmFFEc1mH7jgzLCkoLY-1">
          <mxGeometry x="390" y="1800" width="80" height="40" as="geometry" />
        </mxCell>
        <mxCell id="RFmFFEc1mH7jgzLCkoLY-12" value="Yes.&lt;br&gt;Multiple&lt;br style=&quot;font-size: 12px&quot;&gt;Customizable" style="rounded=1;whiteSpace=wrap;html=1;shadow=0;glass=0;comic=0;strokeColor=#B3B3B3;fillColor=none;fontSize=12;align=center;" vertex="1" parent="RFmFFEc1mH7jgzLCkoLY-1">
          <mxGeometry x="480" y="1800" width="80" height="40" as="geometry" />
        </mxCell>
        <mxCell id="RFmFFEc1mH7jgzLCkoLY-13" value="Resource&amp;nbsp;&lt;br style=&quot;font-size: 12px&quot;&gt;Metadata" style="rounded=1;whiteSpace=wrap;html=1;shadow=0;glass=0;comic=0;strokeColor=#666666;fillColor=#f5f5f5;fontSize=12;align=center;fontColor=#333333;" vertex="1" parent="RFmFFEc1mH7jgzLCkoLY-1">
          <mxGeometry x="120" y="1750" width="80" height="40" as="geometry" />
        </mxCell>
        <mxCell id="RFmFFEc1mH7jgzLCkoLY-14" value="No" style="rounded=1;whiteSpace=wrap;html=1;shadow=0;glass=0;comic=0;strokeColor=#B3B3B3;fillColor=none;fontSize=12;align=center;" vertex="1" parent="RFmFFEc1mH7jgzLCkoLY-1">
          <mxGeometry x="210" y="1750" width="80" height="40" as="geometry" />
        </mxCell>
        <mxCell id="RFmFFEc1mH7jgzLCkoLY-15" value="Yes.&lt;br style=&quot;font-size: 12px;&quot;&gt;Fixed" style="rounded=1;whiteSpace=wrap;html=1;shadow=0;glass=0;comic=0;strokeColor=#B3B3B3;fillColor=none;fontSize=12;align=center;" vertex="1" parent="RFmFFEc1mH7jgzLCkoLY-1">
          <mxGeometry x="300" y="1750" width="80" height="40" as="geometry" />
        </mxCell>
        <mxCell id="RFmFFEc1mH7jgzLCkoLY-16" value="Customizable" style="rounded=1;whiteSpace=wrap;html=1;shadow=0;glass=0;comic=0;strokeColor=#B3B3B3;fillColor=none;fontSize=12;align=center;" vertex="1" parent="RFmFFEc1mH7jgzLCkoLY-1">
          <mxGeometry x="390" y="1750" width="80" height="40" as="geometry" />
        </mxCell>
        <mxCell id="RFmFFEc1mH7jgzLCkoLY-17" value="Multiple&lt;br style=&quot;font-size: 12px;&quot;&gt;Customizable" style="rounded=1;whiteSpace=wrap;html=1;shadow=0;glass=0;comic=0;strokeColor=#B3B3B3;fillColor=none;fontSize=12;align=center;" vertex="1" parent="RFmFFEc1mH7jgzLCkoLY-1">
          <mxGeometry x="480" y="1750" width="80" height="40" as="geometry" />
        </mxCell>
        <mxCell id="RFmFFEc1mH7jgzLCkoLY-18" value="No" style="rounded=1;whiteSpace=wrap;html=1;shadow=0;glass=0;comic=0;strokeColor=#B3B3B3;fillColor=none;fontSize=12;align=center;" vertex="1" parent="RFmFFEc1mH7jgzLCkoLY-1">
          <mxGeometry x="210" y="1700" width="80" height="40" as="geometry" />
        </mxCell>
        <mxCell id="RFmFFEc1mH7jgzLCkoLY-19" value="Resource Versioning" style="rounded=1;whiteSpace=wrap;html=1;shadow=0;glass=0;comic=0;strokeColor=#666666;fillColor=#f5f5f5;fontSize=12;align=center;fontColor=#333333;" vertex="1" parent="RFmFFEc1mH7jgzLCkoLY-1">
          <mxGeometry x="120" y="1700" width="80" height="40" as="geometry" />
        </mxCell>
        <mxCell id="RFmFFEc1mH7jgzLCkoLY-20" value="Yes" style="rounded=1;whiteSpace=wrap;html=1;shadow=0;glass=0;comic=0;strokeColor=#B3B3B3;fillColor=none;fontSize=12;align=center;" vertex="1" parent="RFmFFEc1mH7jgzLCkoLY-1">
          <mxGeometry x="300" y="1700" width="80" height="40" as="geometry" />
        </mxCell>
        <mxCell id="RFmFFEc1mH7jgzLCkoLY-21" value="Yes &amp;amp; Linked" style="rounded=1;whiteSpace=wrap;html=1;shadow=0;glass=0;comic=0;strokeColor=#B3B3B3;fillColor=none;fontSize=12;align=center;" vertex="1" parent="RFmFFEc1mH7jgzLCkoLY-1">
          <mxGeometry x="390" y="1700" width="80" height="40" as="geometry" />
        </mxCell>
        <mxCell id="RFmFFEc1mH7jgzLCkoLY-22" value="General Media" style="rounded=1;whiteSpace=wrap;html=1;shadow=0;glass=0;comic=0;strokeColor=#B3B3B3;fillColor=none;fontSize=12;align=center;" vertex="1" parent="RFmFFEc1mH7jgzLCkoLY-1">
          <mxGeometry x="210" y="1650" width="80" height="40" as="geometry" />
        </mxCell>
        <mxCell id="RFmFFEc1mH7jgzLCkoLY-23" value="Resource Processing Control" style="rounded=1;whiteSpace=wrap;html=1;shadow=0;glass=0;comic=0;strokeColor=#666666;fillColor=#f5f5f5;fontSize=12;align=center;fontColor=#333333;" vertex="1" parent="RFmFFEc1mH7jgzLCkoLY-1">
          <mxGeometry x="120" y="1600" width="80" height="40" as="geometry" />
        </mxCell>
        <mxCell id="RFmFFEc1mH7jgzLCkoLY-24" value="Permission Based" style="rounded=1;whiteSpace=wrap;html=1;shadow=0;glass=0;comic=0;strokeColor=#B3B3B3;fillColor=none;fontSize=12;align=center;" vertex="1" parent="RFmFFEc1mH7jgzLCkoLY-1">
          <mxGeometry x="210" y="1600" width="80" height="40" as="geometry" />
        </mxCell>
        <mxCell id="RFmFFEc1mH7jgzLCkoLY-25" value="Workflow Based" style="rounded=1;whiteSpace=wrap;html=1;shadow=0;glass=0;comic=0;strokeColor=#B3B3B3;fillColor=none;fontSize=12;align=center;" vertex="1" parent="RFmFFEc1mH7jgzLCkoLY-1">
          <mxGeometry x="300" y="1600" width="80" height="40" as="geometry" />
        </mxCell>
        <mxCell id="RFmFFEc1mH7jgzLCkoLY-26" value="Workflow Based, w/ Escalation" style="rounded=1;whiteSpace=wrap;html=1;shadow=0;glass=0;comic=0;strokeColor=#B3B3B3;fillColor=none;fontSize=12;align=center;" vertex="1" parent="RFmFFEc1mH7jgzLCkoLY-1">
          <mxGeometry x="390" y="1600" width="80" height="40" as="geometry" />
        </mxCell>
        <mxCell id="RFmFFEc1mH7jgzLCkoLY-27" value="Resource Deletion" style="rounded=1;whiteSpace=wrap;html=1;shadow=0;glass=0;comic=0;strokeColor=#666666;fillColor=#f5f5f5;fontSize=12;align=center;fontColor=#333333;" vertex="1" parent="RFmFFEc1mH7jgzLCkoLY-1">
          <mxGeometry x="120" y="1949" width="80" height="40" as="geometry" />
        </mxCell>
        <mxCell id="RFmFFEc1mH7jgzLCkoLY-28" value="Permanent Deletion (CRUD)" style="rounded=1;whiteSpace=wrap;html=1;shadow=0;glass=0;comic=0;strokeColor=#B3B3B3;fillColor=none;fontSize=12;align=center;" vertex="1" parent="RFmFFEc1mH7jgzLCkoLY-1">
          <mxGeometry x="210" y="1949" width="80" height="40" as="geometry" />
        </mxCell>
        <mxCell id="RFmFFEc1mH7jgzLCkoLY-29" value="&lt;font style=&quot;font-size: 10px&quot;&gt;Logical Garbage then Permanent Delete&lt;/font&gt;" style="rounded=1;whiteSpace=wrap;html=1;shadow=0;glass=0;comic=0;strokeColor=#B3B3B3;fillColor=none;fontSize=12;align=center;" vertex="1" parent="RFmFFEc1mH7jgzLCkoLY-1">
          <mxGeometry x="300" y="1949" width="80" height="40" as="geometry" />
        </mxCell>
        <mxCell id="RFmFFEc1mH7jgzLCkoLY-30" value="Garbage then logical Delete" style="rounded=1;whiteSpace=wrap;html=1;shadow=0;glass=0;comic=0;strokeColor=#B3B3B3;fillColor=none;fontSize=12;align=center;" vertex="1" parent="RFmFFEc1mH7jgzLCkoLY-1">
          <mxGeometry x="390" y="1949" width="80" height="40" as="geometry" />
        </mxCell>
        <mxCell id="RFmFFEc1mH7jgzLCkoLY-31" value="Resources&lt;br&gt;Import/Export &lt;br&gt;" style="rounded=1;whiteSpace=wrap;html=1;shadow=0;glass=0;comic=0;strokeColor=#666666;fillColor=#f5f5f5;fontSize=12;align=center;fontColor=#333333;" vertex="1" parent="RFmFFEc1mH7jgzLCkoLY-1">
          <mxGeometry x="120" y="1850" width="80" height="40" as="geometry" />
        </mxCell>
        <mxCell id="RFmFFEc1mH7jgzLCkoLY-32" value="No" style="rounded=1;whiteSpace=wrap;html=1;shadow=0;glass=0;comic=0;strokeColor=#B3B3B3;fillColor=none;fontSize=12;align=center;" vertex="1" parent="RFmFFEc1mH7jgzLCkoLY-1">
          <mxGeometry x="210" y="1850" width="80" height="40" as="geometry" />
        </mxCell>
        <mxCell id="RFmFFEc1mH7jgzLCkoLY-33" value="via ETL" style="rounded=1;whiteSpace=wrap;html=1;shadow=0;glass=0;comic=0;strokeColor=#B3B3B3;fillColor=none;fontSize=12;align=center;" vertex="1" parent="RFmFFEc1mH7jgzLCkoLY-1">
          <mxGeometry x="390" y="1850" width="80" height="40" as="geometry" />
        </mxCell>
        <mxCell id="RFmFFEc1mH7jgzLCkoLY-34" value="via Backups" style="rounded=1;whiteSpace=wrap;html=1;shadow=0;glass=0;comic=0;strokeColor=#B3B3B3;fillColor=none;fontSize=12;align=center;" vertex="1" parent="RFmFFEc1mH7jgzLCkoLY-1">
          <mxGeometry x="300" y="1850" width="80" height="40" as="geometry" />
        </mxCell>
        <mxCell id="RFmFFEc1mH7jgzLCkoLY-35" value="via APIs" style="rounded=1;whiteSpace=wrap;html=1;shadow=0;glass=0;comic=0;strokeColor=#B3B3B3;fillColor=none;fontSize=12;align=center;" vertex="1" parent="RFmFFEc1mH7jgzLCkoLY-1">
          <mxGeometry x="480" y="1850" width="80" height="40" as="geometry" />
        </mxCell>
        <mxCell id="RFmFFEc1mH7jgzLCkoLY-36" value="via Standard based&amp;nbsp; APIs" style="rounded=1;whiteSpace=wrap;html=1;shadow=0;glass=0;comic=0;strokeColor=#B3B3B3;fillColor=none;fontSize=12;align=center;" vertex="1" parent="RFmFFEc1mH7jgzLCkoLY-1">
          <mxGeometry x="570" y="1850" width="80" height="40" as="geometry" />
        </mxCell>
        <mxCell id="RFmFFEc1mH7jgzLCkoLY-37" value="Resource Collections" style="rounded=1;whiteSpace=wrap;html=1;shadow=0;glass=0;comic=0;strokeColor=#666666;fillColor=#f5f5f5;fontSize=12;align=center;fontColor=#333333;" vertex="1" parent="RFmFFEc1mH7jgzLCkoLY-1">
          <mxGeometry x="120" y="1900" width="80" height="40" as="geometry" />
        </mxCell>
        <mxCell id="RFmFFEc1mH7jgzLCkoLY-38" value="No" style="rounded=1;whiteSpace=wrap;html=1;shadow=0;glass=0;comic=0;strokeColor=#B3B3B3;fillColor=none;fontSize=12;align=center;" vertex="1" parent="RFmFFEc1mH7jgzLCkoLY-1">
          <mxGeometry x="210" y="1900" width="80" height="40" as="geometry" />
        </mxCell>
        <mxCell id="RFmFFEc1mH7jgzLCkoLY-39" value="Yes" style="rounded=1;whiteSpace=wrap;html=1;shadow=0;glass=0;comic=0;strokeColor=#B3B3B3;fillColor=none;fontSize=12;align=center;" vertex="1" parent="RFmFFEc1mH7jgzLCkoLY-1">
          <mxGeometry x="300" y="1900" width="80" height="40" as="geometry" />
        </mxCell>
        <mxCell id="RFmFFEc1mH7jgzLCkoLY-40" value="Nestable (Hierarchical Trees)" style="rounded=1;whiteSpace=wrap;html=1;shadow=0;glass=0;comic=0;strokeColor=#B3B3B3;fillColor=none;fontSize=12;align=center;" vertex="1" parent="RFmFFEc1mH7jgzLCkoLY-1">
          <mxGeometry x="390" y="1900" width="80" height="40" as="geometry" />
        </mxCell>
        <mxCell id="RFmFFEc1mH7jgzLCkoLY-41" value="Graphable&lt;br&gt;&amp;nbsp;(reuseable)" style="rounded=1;whiteSpace=wrap;html=1;shadow=0;glass=0;comic=0;strokeColor=#B3B3B3;fillColor=none;fontSize=12;align=center;" vertex="1" parent="RFmFFEc1mH7jgzLCkoLY-1">
          <mxGeometry x="480" y="1900" width="80" height="40" as="geometry" />
        </mxCell>
        <mxCell id="RFmFFEc1mH7jgzLCkoLY-42" value="Resource Searching" style="rounded=1;whiteSpace=wrap;html=1;shadow=0;glass=0;comic=0;strokeColor=#666666;fillColor=#f5f5f5;fontSize=12;align=center;fontColor=#333333;" vertex="1" parent="RFmFFEc1mH7jgzLCkoLY-1">
          <mxGeometry x="120" y="2000" width="80" height="40" as="geometry" />
        </mxCell>
        <mxCell id="RFmFFEc1mH7jgzLCkoLY-43" value="No" style="rounded=1;whiteSpace=wrap;html=1;shadow=0;glass=0;comic=0;strokeColor=#B3B3B3;fillColor=none;fontSize=12;align=center;" vertex="1" parent="RFmFFEc1mH7jgzLCkoLY-1">
          <mxGeometry x="210" y="2050" width="80" height="40" as="geometry" />
        </mxCell>
        <mxCell id="RFmFFEc1mH7jgzLCkoLY-44" value="SEO based" style="rounded=1;whiteSpace=wrap;html=1;shadow=0;glass=0;comic=0;strokeColor=#B3B3B3;fillColor=none;fontSize=12;align=center;" vertex="1" parent="RFmFFEc1mH7jgzLCkoLY-1">
          <mxGeometry x="300" y="2000" width="80" height="40" as="geometry" />
        </mxCell>
        <mxCell id="RFmFFEc1mH7jgzLCkoLY-45" value="Internal&lt;br&gt;Metadata based" style="rounded=1;whiteSpace=wrap;html=1;shadow=0;glass=0;comic=0;strokeColor=#B3B3B3;fillColor=none;fontSize=12;align=center;" vertex="1" parent="RFmFFEc1mH7jgzLCkoLY-1">
          <mxGeometry x="390" y="2000" width="80" height="40" as="geometry" />
        </mxCell>
        <mxCell id="RFmFFEc1mH7jgzLCkoLY-46" value="Internal Doc Content based" style="rounded=1;whiteSpace=wrap;html=1;shadow=0;glass=0;comic=0;strokeColor=#B3B3B3;fillColor=none;fontSize=12;align=center;" vertex="1" parent="RFmFFEc1mH7jgzLCkoLY-1">
          <mxGeometry x="480" y="2000" width="80" height="40" as="geometry" />
        </mxCell>
        <mxCell id="RFmFFEc1mH7jgzLCkoLY-47" value="Resource&lt;br&gt;Change Notification&amp;nbsp;" style="rounded=1;whiteSpace=wrap;html=1;shadow=0;glass=0;comic=0;strokeColor=#666666;fillColor=#f5f5f5;fontSize=12;align=center;fontColor=#333333;" vertex="1" parent="RFmFFEc1mH7jgzLCkoLY-1">
          <mxGeometry x="120" y="2050" width="80" height="40" as="geometry" />
        </mxCell>
        <mxCell id="RFmFFEc1mH7jgzLCkoLY-48" value="No" style="rounded=1;whiteSpace=wrap;html=1;shadow=0;glass=0;comic=0;strokeColor=#B3B3B3;fillColor=none;fontSize=12;align=center;" vertex="1" parent="RFmFFEc1mH7jgzLCkoLY-1">
          <mxGeometry x="210" y="2000" width="80" height="40" as="geometry" />
        </mxCell>
        <mxCell id="RFmFFEc1mH7jgzLCkoLY-49" value="Yes, can subscribe to changes" style="rounded=1;whiteSpace=wrap;html=1;shadow=0;glass=0;comic=0;strokeColor=#B3B3B3;fillColor=none;fontSize=12;align=center;" vertex="1" parent="RFmFFEc1mH7jgzLCkoLY-1">
          <mxGeometry x="300" y="2050" width="80" height="40" as="geometry" />
        </mxCell>
        <mxCell id="RFmFFEc1mH7jgzLCkoLY-50" value="Yes, to parent &amp;amp; linked doc changes" style="rounded=1;whiteSpace=wrap;html=1;shadow=0;glass=0;comic=0;strokeColor=#B3B3B3;fillColor=none;fontSize=12;align=center;" vertex="1" parent="RFmFFEc1mH7jgzLCkoLY-1">
          <mxGeometry x="480" y="2050" width="80" height="40" as="geometry" />
        </mxCell>
        <mxCell id="RFmFFEc1mH7jgzLCkoLY-51" value="Yes, to parent docs changes" style="rounded=1;whiteSpace=wrap;html=1;shadow=0;glass=0;comic=0;strokeColor=#B3B3B3;fillColor=none;fontSize=12;align=center;" vertex="1" parent="RFmFFEc1mH7jgzLCkoLY-1">
          <mxGeometry x="390" y="2050" width="80" height="40" as="geometry" />
        </mxCell>
        <mxCell id="RFmFFEc1mH7jgzLCkoLY-52" value="Process" style="rounded=1;whiteSpace=wrap;html=1;shadow=0;glass=0;comic=0;strokeColor=#B3B3B3;fillColor=none;fontSize=12;align=center;" vertex="1" parent="RFmFFEc1mH7jgzLCkoLY-1">
          <mxGeometry x="300" y="1490" width="80" height="40" as="geometry" />
        </mxCell>
        <mxCell id="RFmFFEc1mH7jgzLCkoLY-53" value="Organisation" style="rounded=1;whiteSpace=wrap;html=1;shadow=0;glass=0;comic=0;strokeColor=#666666;fillColor=#f5f5f5;fontSize=12;align=center;fontColor=#333333;" vertex="1" parent="RFmFFEc1mH7jgzLCkoLY-1">
          <mxGeometry x="120" y="1540" width="80" height="40" as="geometry" />
        </mxCell>
        <mxCell id="RFmFFEc1mH7jgzLCkoLY-54" value="None" style="rounded=1;whiteSpace=wrap;html=1;shadow=0;glass=0;comic=0;strokeColor=#B3B3B3;fillColor=none;fontSize=12;align=center;" vertex="1" parent="RFmFFEc1mH7jgzLCkoLY-1">
          <mxGeometry x="210" y="1540" width="80" height="40" as="geometry" />
        </mxCell>
        <mxCell id="RFmFFEc1mH7jgzLCkoLY-55" value="Taxonomy" style="rounded=1;whiteSpace=wrap;html=1;shadow=0;glass=0;comic=0;strokeColor=#B3B3B3;fillColor=none;fontSize=12;align=center;" vertex="1" parent="RFmFFEc1mH7jgzLCkoLY-1">
          <mxGeometry x="480" y="1540" width="80" height="40" as="geometry" />
        </mxCell>
        <mxCell id="RFmFFEc1mH7jgzLCkoLY-56" value="Ontology" style="rounded=1;whiteSpace=wrap;html=1;shadow=0;glass=0;comic=0;strokeColor=#B3B3B3;fillColor=none;fontSize=12;align=center;" vertex="1" parent="RFmFFEc1mH7jgzLCkoLY-1">
          <mxGeometry x="570" y="1540" width="80" height="40" as="geometry" />
        </mxCell>
        <mxCell id="RFmFFEc1mH7jgzLCkoLY-57" value="Folkonomy" style="rounded=1;whiteSpace=wrap;html=1;shadow=0;glass=0;comic=0;strokeColor=#B3B3B3;fillColor=none;fontSize=12;align=center;" vertex="1" parent="RFmFFEc1mH7jgzLCkoLY-1">
          <mxGeometry x="390" y="1540" width="80" height="40" as="geometry" />
        </mxCell>
        <mxCell id="RFmFFEc1mH7jgzLCkoLY-58" value="Rigid" style="rounded=1;whiteSpace=wrap;html=1;shadow=0;glass=0;comic=0;strokeColor=#B3B3B3;fillColor=none;fontSize=12;align=center;" vertex="1" parent="RFmFFEc1mH7jgzLCkoLY-1">
          <mxGeometry x="300" y="1540" width="80" height="40" as="geometry" />
        </mxCell>
        <mxCell id="RFmFFEc1mH7jgzLCkoLY-66" value="Service Event&lt;br&gt;Experience" style="rounded=0;whiteSpace=wrap;html=1;shadow=0;glass=0;comic=0;strokeColor=#666666;fillColor=#f5f5f5;fontSize=12;align=center;fontColor=#333333;fontStyle=1" vertex="1" parent="RFmFFEc1mH7jgzLCkoLY-1">
          <mxGeometry x="600" y="200" width="80" height="40" as="geometry" />
        </mxCell>
        <mxCell id="RFmFFEc1mH7jgzLCkoLY-89" value="Brand&lt;br&gt;Experience" style="rounded=0;whiteSpace=wrap;html=1;shadow=0;glass=0;comic=0;strokeColor=#666666;fillColor=#f5f5f5;fontSize=12;align=center;fontColor=#333333;fontStyle=1" vertex="1" parent="RFmFFEc1mH7jgzLCkoLY-1">
          <mxGeometry x="240" y="200" width="80" height="40" as="geometry" />
        </mxCell>
        <mxCell id="RFmFFEc1mH7jgzLCkoLY-90" value="Customer&lt;br&gt;Experience" style="rounded=0;whiteSpace=wrap;html=1;shadow=0;glass=0;comic=0;strokeColor=#666666;fillColor=#f5f5f5;fontSize=12;align=center;fontColor=#333333;fontStyle=1" vertex="1" parent="RFmFFEc1mH7jgzLCkoLY-1">
          <mxGeometry x="360" y="200" width="80" height="40" as="geometry" />
        </mxCell>
        <mxCell id="RFmFFEc1mH7jgzLCkoLY-91" value="Support&lt;br&gt;Process&lt;br&gt;&lt;i&gt;(Ease, etc.)&lt;/i&gt;" style="rounded=0;whiteSpace=wrap;html=1;shadow=0;glass=0;comic=0;strokeColor=#B3B3B3;fillColor=none;fontSize=12;align=center;" vertex="1" parent="RFmFFEc1mH7jgzLCkoLY-1">
          <mxGeometry x="360" y="450" width="80" height="40" as="geometry" />
        </mxCell>
        <mxCell id="RFmFFEc1mH7jgzLCkoLY-94" value="Sales&lt;br&gt;Process&lt;br&gt;&lt;i&gt;(Ease etc.)&lt;/i&gt;" style="rounded=0;whiteSpace=wrap;html=1;shadow=0;glass=0;comic=0;strokeColor=#B3B3B3;fillColor=none;fontSize=12;align=center;" vertex="1" parent="RFmFFEc1mH7jgzLCkoLY-1">
          <mxGeometry x="360" y="400" width="80" height="40" as="geometry" />
        </mxCell>
        <mxCell id="RFmFFEc1mH7jgzLCkoLY-95" value="Recognition" style="rounded=0;whiteSpace=wrap;html=1;shadow=0;glass=0;comic=0;strokeColor=#B3B3B3;fillColor=none;fontSize=12;align=center;" vertex="1" parent="RFmFFEc1mH7jgzLCkoLY-1">
          <mxGeometry x="240" y="250" width="80" height="40" as="geometry" />
        </mxCell>
        <mxCell id="RFmFFEc1mH7jgzLCkoLY-96" value="First Time" style="rounded=0;whiteSpace=wrap;html=1;shadow=0;glass=0;comic=0;strokeColor=#B3B3B3;fillColor=none;fontSize=12;align=center;" vertex="1" parent="RFmFFEc1mH7jgzLCkoLY-1">
          <mxGeometry x="600" y="250" width="80" height="40" as="geometry" />
        </mxCell>
        <mxCell id="RFmFFEc1mH7jgzLCkoLY-97" value="Upgrading" style="rounded=0;whiteSpace=wrap;html=1;shadow=0;glass=0;comic=0;strokeColor=#B3B3B3;fillColor=none;fontSize=12;align=center;" vertex="1" parent="RFmFFEc1mH7jgzLCkoLY-1">
          <mxGeometry x="600" y="450" width="80" height="40" as="geometry" />
        </mxCell>
        <mxCell id="RFmFFEc1mH7jgzLCkoLY-98" value="Everday use" style="rounded=0;whiteSpace=wrap;html=1;shadow=0;glass=0;comic=0;strokeColor=#B3B3B3;fillColor=none;fontSize=12;align=center;" vertex="1" parent="RFmFFEc1mH7jgzLCkoLY-1">
          <mxGeometry x="600" y="300" width="80" height="40" as="geometry" />
        </mxCell>
        <mxCell id="RFmFFEc1mH7jgzLCkoLY-99" value="Trust" style="rounded=0;whiteSpace=wrap;html=1;shadow=0;glass=0;comic=0;strokeColor=#B3B3B3;fillColor=none;fontSize=12;align=center;" vertex="1" parent="RFmFFEc1mH7jgzLCkoLY-1">
          <mxGeometry x="240" y="350" width="80" height="40" as="geometry" />
        </mxCell>
        <mxCell id="RFmFFEc1mH7jgzLCkoLY-100" value="Integration" style="rounded=0;whiteSpace=wrap;html=1;shadow=0;glass=0;comic=0;strokeColor=#B3B3B3;fillColor=none;fontSize=12;align=center;" vertex="1" parent="RFmFFEc1mH7jgzLCkoLY-1">
          <mxGeometry x="600" y="400" width="80" height="40" as="geometry" />
        </mxCell>
        <mxCell id="RFmFFEc1mH7jgzLCkoLY-101" value="Loyalty / Retention" style="rounded=0;whiteSpace=wrap;html=1;shadow=0;glass=0;comic=0;strokeColor=#B3B3B3;fillColor=none;fontSize=12;align=center;" vertex="1" parent="RFmFFEc1mH7jgzLCkoLY-1">
          <mxGeometry x="240" y="500" width="80" height="40" as="geometry" />
        </mxCell>
        <mxCell id="RFmFFEc1mH7jgzLCkoLY-102" value="Differentiation" style="rounded=0;whiteSpace=wrap;html=1;shadow=0;glass=0;comic=0;strokeColor=#B3B3B3;fillColor=none;fontSize=12;align=center;" vertex="1" parent="RFmFFEc1mH7jgzLCkoLY-1">
          <mxGeometry x="240" y="300" width="80" height="40" as="geometry" />
        </mxCell>
        <mxCell id="RFmFFEc1mH7jgzLCkoLY-103" value="Assessed Value" style="rounded=0;whiteSpace=wrap;html=1;shadow=0;glass=0;comic=0;strokeColor=#666666;fillColor=#f5f5f5;fontSize=12;align=center;fontColor=#333333;fontStyle=1" vertex="1" parent="RFmFFEc1mH7jgzLCkoLY-1">
          <mxGeometry x="480" y="200" width="80" height="40" as="geometry" />
        </mxCell>
        <mxCell id="RFmFFEc1mH7jgzLCkoLY-104" value="Repair / Correction" style="rounded=0;whiteSpace=wrap;html=1;shadow=0;glass=0;comic=0;strokeColor=#B3B3B3;fillColor=none;fontSize=12;align=center;" vertex="1" parent="RFmFFEc1mH7jgzLCkoLY-1">
          <mxGeometry x="360" y="500" width="80" height="40" as="geometry" />
        </mxCell>
        <mxCell id="RFmFFEc1mH7jgzLCkoLY-106" value="Product Alignment&lt;br&gt;&lt;i&gt;&lt;font style=&quot;font-size: 9px&quot;&gt;(Suite, Integration)&lt;/font&gt;&lt;/i&gt;" style="rounded=0;whiteSpace=wrap;html=1;shadow=0;glass=0;comic=0;strokeColor=#B3B3B3;fillColor=none;fontSize=12;align=center;" vertex="1" parent="RFmFFEc1mH7jgzLCkoLY-1">
          <mxGeometry x="480" y="350" width="80" height="40" as="geometry" />
        </mxCell>
        <mxCell id="RFmFFEc1mH7jgzLCkoLY-107" value="Recommendable" style="rounded=0;whiteSpace=wrap;html=1;shadow=0;glass=0;comic=0;strokeColor=#B3B3B3;fillColor=none;fontSize=12;align=center;" vertex="1" parent="RFmFFEc1mH7jgzLCkoLY-1">
          <mxGeometry x="240" y="400" width="80" height="40" as="geometry" />
        </mxCell>
        <mxCell id="RFmFFEc1mH7jgzLCkoLY-110" value="Customer Assessment" style="rounded=0;whiteSpace=wrap;html=1;shadow=0;glass=0;comic=0;fillColor=#f5f5f5;fontSize=12;align=center;fontColor=#333333;strokeColor=none;" vertex="1" parent="RFmFFEc1mH7jgzLCkoLY-1">
          <mxGeometry x="360" y="350" width="80" height="40" as="geometry" />
        </mxCell>
        <mxCell id="RFmFFEc1mH7jgzLCkoLY-111" value="Termination" style="rounded=0;whiteSpace=wrap;html=1;shadow=0;glass=0;comic=0;strokeColor=#B3B3B3;fillColor=none;fontSize=12;align=center;" vertex="1" parent="RFmFFEc1mH7jgzLCkoLY-1">
          <mxGeometry x="600" y="500" width="80" height="40" as="geometry" />
        </mxCell>
        <mxCell id="RFmFFEc1mH7jgzLCkoLY-112" value="Discovery&lt;br&gt;&lt;i&gt;&lt;font style=&quot;font-size: 10px&quot;&gt;(Adverisement, Linking, etc.)&lt;/font&gt;&lt;/i&gt;" style="rounded=0;whiteSpace=wrap;html=1;shadow=0;glass=0;comic=0;strokeColor=#B3B3B3;fillColor=none;fontSize=12;align=center;" vertex="1" parent="RFmFFEc1mH7jgzLCkoLY-1">
          <mxGeometry x="360" y="250" width="80" height="40" as="geometry" />
        </mxCell>
        <mxCell id="RFmFFEc1mH7jgzLCkoLY-113" value="Introduction&lt;br&gt;&lt;i&gt;&lt;font style=&quot;font-size: 10px&quot;&gt;(Description, Pitch, etc.)&lt;/font&gt;&lt;/i&gt;" style="rounded=0;whiteSpace=wrap;html=1;shadow=0;glass=0;comic=0;strokeColor=#B3B3B3;fillColor=none;fontSize=12;align=center;" vertex="1" parent="RFmFFEc1mH7jgzLCkoLY-1">
          <mxGeometry x="360" y="300" width="80" height="40" as="geometry" />
        </mxCell>
        <mxCell id="RFmFFEc1mH7jgzLCkoLY-114" value="Strategic&lt;br&gt;Experience" style="rounded=0;whiteSpace=wrap;html=1;shadow=0;glass=0;comic=0;strokeColor=#666666;fillColor=#f5f5f5;fontSize=12;align=center;fontColor=#333333;fontStyle=1" vertex="1" parent="RFmFFEc1mH7jgzLCkoLY-1">
          <mxGeometry x="120" y="200" width="80" height="40" as="geometry" />
        </mxCell>
        <mxCell id="RFmFFEc1mH7jgzLCkoLY-115" value="Strategic Alignment" style="rounded=0;whiteSpace=wrap;html=1;shadow=0;glass=0;comic=0;strokeColor=#B3B3B3;fillColor=none;fontSize=12;align=center;" vertex="1" parent="RFmFFEc1mH7jgzLCkoLY-1">
          <mxGeometry x="120" y="300" width="80" height="40" as="geometry" />
        </mxCell>
        <mxCell id="RFmFFEc1mH7jgzLCkoLY-116" value="Qualities&lt;br&gt;&lt;font style=&quot;font-size: 10px&quot;&gt;&lt;i&gt;(ISO-25010, Privacy, etc.)&lt;/i&gt;&lt;/font&gt;" style="rounded=0;whiteSpace=wrap;html=1;shadow=0;glass=0;comic=0;strokeColor=#B3B3B3;fillColor=none;fontSize=12;align=center;" vertex="1" parent="RFmFFEc1mH7jgzLCkoLY-1">
          <mxGeometry x="480" y="300" width="80" height="40" as="geometry" />
        </mxCell>
        <mxCell id="RFmFFEc1mH7jgzLCkoLY-117" value="Functionality&lt;br&gt;&lt;font style=&quot;font-size: 10px&quot;&gt;&lt;i&gt;(&lt;/i&gt;&lt;i&gt;Completeness,&amp;nbsp;&lt;/i&gt;&lt;i&gt;&lt;br&gt;Understandability,)&lt;/i&gt;&lt;/font&gt;" style="rounded=0;whiteSpace=wrap;html=1;shadow=0;glass=0;comic=0;strokeColor=#B3B3B3;fillColor=none;fontSize=12;align=center;" vertex="1" parent="RFmFFEc1mH7jgzLCkoLY-1">
          <mxGeometry x="480" y="250" width="80" height="40" as="geometry" />
        </mxCell>
        <mxCell id="RFmFFEc1mH7jgzLCkoLY-118" value="Obligations&lt;br&gt;&lt;font style=&quot;font-size: 10px&quot;&gt;&lt;i&gt;(Accessibility, Reporting, etc.&lt;/i&gt;&lt;/font&gt;" style="rounded=0;whiteSpace=wrap;html=1;shadow=0;glass=0;comic=0;strokeColor=#B3B3B3;fillColor=none;fontSize=12;align=center;" vertex="1" parent="RFmFFEc1mH7jgzLCkoLY-1">
          <mxGeometry x="480" y="450" width="80" height="40" as="geometry" />
        </mxCell>
        <mxCell id="RFmFFEc1mH7jgzLCkoLY-119" value="Risk &amp;amp; Longevity" style="rounded=0;whiteSpace=wrap;html=1;shadow=0;glass=0;comic=0;strokeColor=#B3B3B3;fillColor=none;fontSize=12;align=center;" vertex="1" parent="RFmFFEc1mH7jgzLCkoLY-1">
          <mxGeometry x="480" y="400" width="80" height="40" as="geometry" />
        </mxCell>
        <mxCell id="RFmFFEc1mH7jgzLCkoLY-120" value="Short &amp;amp; Long term Costs&lt;br&gt;&lt;font style=&quot;font-size: 10px&quot;&gt;&lt;i&gt;(Licenses, etc.)&lt;/i&gt;&lt;/font&gt;" style="rounded=0;whiteSpace=wrap;html=1;shadow=0;glass=0;comic=0;strokeColor=#B3B3B3;fillColor=none;fontSize=12;align=center;" vertex="1" parent="RFmFFEc1mH7jgzLCkoLY-1">
          <mxGeometry x="480" y="500" width="80" height="40" as="geometry" />
        </mxCell>
        <mxCell id="RFmFFEc1mH7jgzLCkoLY-121" value="" style="endArrow=none;html=1;strokeColor=#FF9933;exitX=-0.125;exitY=1;exitDx=0;exitDy=0;exitPerimeter=0;" edge="1" parent="RFmFFEc1mH7jgzLCkoLY-1" source="RFmFFEc1mH7jgzLCkoLY-120">
          <mxGeometry width="50" height="50" relative="1" as="geometry">
            <mxPoint x="20" y="430" as="sourcePoint" />
            <mxPoint x="470" y="250" as="targetPoint" />
          </mxGeometry>
        </mxCell>
        <mxCell id="RFmFFEc1mH7jgzLCkoLY-122" value="" style="endArrow=none;html=1;strokeColor=#FF9933;exitX=1;exitY=0.5;exitDx=0;exitDy=0;" edge="1" parent="RFmFFEc1mH7jgzLCkoLY-1" source="RFmFFEc1mH7jgzLCkoLY-110">
          <mxGeometry width="50" height="50" relative="1" as="geometry">
            <mxPoint x="90" y="470" as="sourcePoint" />
            <mxPoint x="470" y="370" as="targetPoint" />
          </mxGeometry>
        </mxCell>
        <mxCell id="RFmFFEc1mH7jgzLCkoLY-123" value="Recovery" style="rounded=0;whiteSpace=wrap;html=1;shadow=0;glass=0;comic=0;strokeColor=#B3B3B3;fillColor=none;fontSize=12;align=center;" vertex="1" parent="RFmFFEc1mH7jgzLCkoLY-1">
          <mxGeometry x="600" y="350" width="80" height="40" as="geometry" />
        </mxCell>
        <mxCell id="RFmFFEc1mH7jgzLCkoLY-124" value="Purpose" style="rounded=0;whiteSpace=wrap;html=1;shadow=0;glass=0;comic=0;strokeColor=#B3B3B3;fillColor=none;fontSize=12;align=center;" vertex="1" parent="RFmFFEc1mH7jgzLCkoLY-1">
          <mxGeometry x="120" y="250" width="80" height="40" as="geometry" />
        </mxCell>
        <mxCell id="sbc2dlS0S0OTpCdw3bBH-0" value="" style="endArrow=none;html=1;strokeColor=#FF9933;exitX=-0.125;exitY=1;exitDx=0;exitDy=0;exitPerimeter=0;" edge="1" parent="RFmFFEc1mH7jgzLCkoLY-1">
          <mxGeometry width="50" height="50" relative="1" as="geometry">
            <mxPoint x="350" y="540" as="sourcePoint" />
            <mxPoint x="350" y="350" as="targetPoint" />
          </mxGeometry>
        </mxCell>
        <mxCell id="sbc2dlS0S0OTpCdw3bBH-1" value="" style="endArrow=none;html=1;strokeColor=#FF9933;exitX=1;exitY=0.5;exitDx=0;exitDy=0;" edge="1" parent="RFmFFEc1mH7jgzLCkoLY-1">
          <mxGeometry width="50" height="50" relative="1" as="geometry">
            <mxPoint x="320" y="520" as="sourcePoint" />
            <mxPoint x="350" y="520" as="targetPoint" />
          </mxGeometry>
        </mxCell>
        <mxCell id="sbc2dlS0S0OTpCdw3bBH-2" value="" style="endArrow=none;html=1;strokeColor=#FF9933;exitX=1;exitY=0.5;exitDx=0;exitDy=0;" edge="1" parent="RFmFFEc1mH7jgzLCkoLY-1">
          <mxGeometry width="50" height="50" relative="1" as="geometry">
            <mxPoint x="320" y="420" as="sourcePoint" />
            <mxPoint x="350" y="420" as="targetPoint" />
          </mxGeometry>
        </mxCell>
        <mxCell id="sbc2dlS0S0OTpCdw3bBH-3" value="" style="endArrow=none;html=1;strokeColor=#FF9933;exitX=1;exitY=0.5;exitDx=0;exitDy=0;" edge="1" parent="RFmFFEc1mH7jgzLCkoLY-1">
          <mxGeometry width="50" height="50" relative="1" as="geometry">
            <mxPoint x="320" y="369" as="sourcePoint" />
            <mxPoint x="350" y="369" as="targetPoint" />
          </mxGeometry>
        </mxCell>
        <mxCell id="RFmFFEc1mH7jgzLCkoLY-76" value="Overlays" style="" parent="RFmFFEc1mH7jgzLCkoLY-0" />
        <mxCell id="RFmFFEc1mH7jgzLCkoLY-80" value="" style="rounded=1;whiteSpace=wrap;html=1;shadow=0;glass=0;comic=0;strokeColor=#000000;fillColor=#E6E6E6;fontSize=10;align=center;strokeWidth=6;opacity=30;" vertex="1" parent="RFmFFEc1mH7jgzLCkoLY-76">
          <mxGeometry x="480" y="1540" width="80" height="40" as="geometry" />
        </mxCell>
        <mxCell id="RFmFFEc1mH7jgzLCkoLY-81" value="Title/Diagram" parent="RFmFFEc1mH7jgzLCkoLY-0" />
        <mxCell id="RFmFFEc1mH7jgzLCkoLY-82" value="&lt;font style=&quot;font-size: 12px ; font-weight: normal&quot;&gt;&lt;i&gt;Diagram: User&amp;nbsp;&lt;/i&gt;&lt;i&gt;Context - Experiences&lt;/i&gt;&lt;/font&gt;" style="text;strokeColor=none;fillColor=none;html=1;fontSize=10;fontStyle=1;verticalAlign=middle;align=left;shadow=0;glass=0;comic=0;opacity=30;fontColor=#808080;" vertex="1" parent="RFmFFEc1mH7jgzLCkoLY-81">
          <mxGeometry x="120" y="560" width="520" height="20" as="geometry" />
        </mxCell>
      </root>
    </mxGraphModel>
  </diagram>
</mxfile>
